HIERARCHY
ROOT Hips
{
 OFFSET 0.000000 0.000000 0.000000
 CHANNELS 6 Xposition Yposition Zposition Yrotation Xrotation Zrotation
 JOINT Chest
 {
  OFFSET 0.000000 10.383400 0.001500
  CHANNELS 3 Yrotation Xrotation Zrotation
  JOINT Chest2
  {
   OFFSET 0.000000 10.418200 -0.003100
   CHANNELS 3 Yrotation Xrotation Zrotation
   JOINT Chest3
   {
    OFFSET 0.000000 10.375100 0.000000
    CHANNELS 3 Yrotation Xrotation Zrotation
    JOINT Chest4
    {
     OFFSET 0.000000 10.364600 0.000000
     CHANNELS 3 Yrotation Xrotation Zrotation
     JOINT Neck
     {
      OFFSET 0.000000 15.642200 0.000000
      CHANNELS 3 Yrotation Xrotation Zrotation
      JOINT Head
      {
       OFFSET 0.000000 9.697300 -0.006500
       CHANNELS 3 Yrotation Xrotation Zrotation
       End Site
       {
        OFFSET 0.000000 18.492200 -0.003400
       }
      }
     }
     JOINT RightCollar
     {
      OFFSET -3.166800 10.349300 0.000000
      CHANNELS 3 Yrotation Xrotation Zrotation
      JOINT RightShoulder
      {
       OFFSET -14.729700 0.000000 0.000000
       CHANNELS 3 Yrotation Xrotation Zrotation
       JOINT RightElbow
       {
        OFFSET 0.000000 -32.224300 0.000000
        CHANNELS 3 Yrotation Xrotation Zrotation
        JOINT RightWrist
        {
         OFFSET 0.000000 -26.084100 0.000000
         CHANNELS 3 Yrotation Xrotation Zrotation
         End Site
         {
          OFFSET 0.000000 -19.319400 0.000000
         }
        }
       }
      }
     }
     JOINT LeftCollar
     {
      OFFSET 3.166800 10.349300 0.000000
      CHANNELS 3 Yrotation Xrotation Zrotation
      JOINT LeftShoulder
      {
       OFFSET 14.729700 0.000000 0.000000
       CHANNELS 3 Yrotation Xrotation Zrotation
       JOINT LeftElbow
       {
        OFFSET 0.000000 -32.224300 0.000000
        CHANNELS 3 Yrotation Xrotation Zrotation
        JOINT LeftWrist
        {
         OFFSET 0.000000 -26.084100 0.000000
         CHANNELS 3 Yrotation Xrotation Zrotation
         End Site
         {
          OFFSET 0.000000 -19.319400 0.000000
         }
        }
       }
      }
     }
    }
   }
  }
 }
 JOINT RightHip
 {
  OFFSET -8.428900 -0.007500 -0.000800
  CHANNELS 3 Yrotation Xrotation Zrotation
  JOINT RightKnee
  {
   OFFSET 0.000000 -43.834600 0.000700
   CHANNELS 3 Yrotation Xrotation Zrotation
   JOINT RightAnkle
   {
    OFFSET 0.000000 -42.757000 0.001200
    CHANNELS 3 Yrotation Xrotation Zrotation
    JOINT RightToe
    {
     OFFSET 0.000000 -6.946900 15.649300
     CHANNELS 3 Yrotation Xrotation Zrotation
     End Site
     {
      OFFSET 0.000000 -1.580800 6.825800
     }
    }
   }
  }
 }
 JOINT LeftHip
 {
  OFFSET 8.428900 -0.007500 -0.000800
  CHANNELS 3 Yrotation Xrotation Zrotation
  JOINT LeftKnee
  {
   OFFSET 0.000000 -43.834600 0.000700
   CHANNELS 3 Yrotation Xrotation Zrotation
   JOINT LeftAnkle
   {
    OFFSET 0.000000 -42.757000 0.001200
    CHANNELS 3 Yrotation Xrotation Zrotation
    JOINT LeftToe
    {
     OFFSET 0.000000 -6.946900 15.649300
     CHANNELS 3 Yrotation Xrotation Zrotation
     End Site
     {
      OFFSET 0.000000 -1.580800 6.825800
     }
    }
   }
  }
 }
}
MOTION
Frames: 11
Frame Time: 0.008333
0.000000 93.354300 0.000000 0.000000 -5.767877 0.000000 0.000000 11.653817 0.000000 0.000000 -5.885947 0.000000 0.000000 -0.000000 0.000000 0.000000 -0.000000 0.000000 0.000000 12.528835 0.000000 0.000000 0.711642 0.000000 0.000000 -0.000000 0.000000 0.000000 0.000000 -90.000000 0.000000 -2.309062 0.000000 0.000000 2.309062 0.000000 0.000000 -0.000000 0.000000 0.000000 -0.000000 90.000000 0.000000 -2.309062 0.000000 0.000000 2.309062 0.000000 0.000000 8.520406 0.000000 0.000000 1.905762 0.000000 -0.000000 -4.658285 0.000000 0.000000 -0.000000 0.000000 0.000000 8.520406 0.000000 0.000000 1.905762 0.000000 -0.000000 -4.658285 0.000000 0.000000 -0.000000 0.000000
-1.467060 151.150706 -3.053804 176.017838 -14.903779 -3.140915 0.056417 16.459508 2.334707 -0.028110 1.665025 0.235621 -0.032372 2.803015 0.384582 0.008977 14.520534 2.040619 -2.746381 10.024750 -1.612022 -2.574700 -15.121288 -1.074980 3.733998 -1.696392 -0.582984 15.820521 -18.024476 -11.530546 50.373507 -48.175718 -32.527492 20.012592 5.645293 -24.850141 -3.885623 -1.963946 -0.936717 -0.211565 -19.826936 5.549943 -19.020105 -57.452619 -2.614746 -12.454930 -0.650357 19.747302 2.734194 -53.422466 8.582610 -88.750214 83.754484 -86.487282 -1.488319 -19.420831 1.656415 -0.010677 0.032560 -0.004981 2.543517 -53.590776 -6.481110 96.281509 79.901612 102.144638 8.701768 -20.992171 -8.734088 -0.001040 -0.037181 -0.001114
-2.298507 143.216984 -1.720835 176.006377 -14.903094 -3.130710 0.067367 16.464882 2.326443 -0.024453 1.665882 0.232917 -0.035173 2.802862 0.386886 0.020649 14.526468 2.036346 -2.755899 10.022429 -1.602202 -2.576989 -15.128590 -1.072295 3.705812 -1.698607 -0.584070 15.831401 -18.037592 -11.523431 50.382525 -48.169756 -32.531799 20.013297 5.633502 -24.871849 -3.906731 -1.968949 -0.917368 -0.264396 -19.772139 5.530427 -19.061850 -57.517614 -2.474742 -12.496551 -0.870133 19.642967 2.758783 -53.418983 8.570185 -88.655104 83.753063 -86.390405 -1.494541 -19.406930 1.655718 -0.007779 0.016534 -0.003454 2.555627 -53.593904 -6.489769 96.326214 79.900757 102.192500 8.710345 -21.001579 -8.746760 0.001207 -0.017213 0.000536
-2.983709 136.683369 -0.623381 176.001397 -14.903858 -3.119581 0.071198 16.470716 2.316234 -0.025547 1.669392 0.232334 -0.032939 2.802121 0.386580 0.023872 14.532233 2.034500 -2.759701 10.012302 -1.596648 -2.581864 -15.116291 -1.065878 3.698354 -1.710191 -0.584432 15.822488 -18.036769 -11.511273 50.434401 -48.152907 -32.571956 20.001427 5.620100 -24.889785 -3.921345 -1.975610 -0.899593 -0.261968 -19.743528 5.515767 -19.117847 -57.572358 -2.391144 -12.535857 -1.054366 19.530080 2.781971 -53.413361 8.553125 -88.600709 83.742009 -86.333382 -1.492199 -19.400320 1.654903 -0.003601 0.008859 -0.001599 2.571105 -53.595101 -6.505597 96.353476 79.900492 102.221137 8.719007 -21.008588 -8.753328 0.001917 -0.010312 0.000851
-3.478380 131.964554 0.169649 175.997621 -14.902271 -3.111255 0.073529 16.473392 2.307802 -0.023221 1.670621 0.233356 -0.033609 2.805201 0.384717 0.029865 14.536208 2.032046 -2.765111 10.015180 -1.589725 -2.589359 -15.113233 -1.056988 3.686806 -1.713467 -0.590983 15.816060 -18.049049 -11.493625 50.463661 -48.139931 -32.591453 20.008727 5.603120 -24.911184 -3.934502 -1.980840 -0.882760 -0.245566 -19.717837 5.502955 -19.167662 -57.616813 -2.339681 -12.594579 -1.202781 19.437646 2.801035 -53.412254 8.539776 -88.505587 83.737394 -86.236753 -1.495146 -19.388477 1.654391 0.000151 0.002344 0.000067 2.576274 -53.601296 -6.515849 96.388018 79.897304 102.252020 8.725261 -21.008324 -8.755398 -0.002158 -0.004901 -0.000958
-3.790295 128.984294 0.670437 175.996185 -14.902001 -3.107126 0.073612 16.475243 2.303169 -0.021480 1.673957 0.231837 -0.035001 2.805716 0.385802 0.032387 14.540215 2.027158 -2.768662 10.020380 -1.585008 -2.603806 -15.082737 -1.049741 3.683623 -1.712759 -0.597767 15.801689 -18.058361 -11.475980 50.517144 -48.120958 -32.630090 20.001818 5.579517 -24.936025 -3.941884 -1.986608 -0.865865 -0.223758 -19.699215 5.490198 -19.222176 -57.652316 -2.292593 -12.657155 -1.304720 19.370370 2.822965 -53.411781 8.516194 -88.460415 83.738451 -86.181061 -1.489124 -19.378848 1.649264 -0.001217 -0.001218 -0.000540 2.579756 -53.605134 -6.519256 96.426587 79.896854 102.288287 8.736703 -21.010666 -8.758691 -0.000188 -0.002265 -0.000084
-3.962507 127.345149 0.945654 175.994451 -14.902787 -3.098665 0.071793 16.477938 2.294129 -0.022440 1.676706 0.231416 -0.032340 2.806363 0.385627 0.032498 14.543756 2.025899 -2.777265 10.036642 -1.585091 -2.603563 -15.088417 -1.046691 3.683383 -1.715988 -0.607530 15.794080 -18.051636 -11.439307 50.579087 -48.096487 -32.693196 19.998429 5.557728 -24.971367 -3.945092 -1.984907 -0.857159 -0.193839 -19.687304 5.483552 -19.457959 -57.727832 -2.116528 -12.624636 -1.335193 19.344578 2.841980 -53.410598 8.492804 -88.424513 83.738511 -86.141272 -1.484436 -19.372116 1.648778 -0.002224 -0.003651 -0.000987 2.591856 -53.604882 -6.532671 96.451958 79.893264 102.314488 8.739509 -21.014869 -8.760224 0.002523 -0.000386 0.001120
-4.044344 126.564488 1.077086 175.995888 -14.900711 -3.093806 0.073749 16.483512 2.290279 -0.024463 1.673113 0.232436 -0.034246 2.805831 0.383076 0.028327 14.549018 2.021382 -2.776152 10.036794 -1.581199 -2.602734 -15.090451 -1.045234 3.687462 -1.723130 -0.609197 15.795710 -18.047422 -11.426932 50.606886 -48.081443 -32.726109 19.995427 5.530819 -25.019475 -3.949755 -1.970817 -0.845565 -0.156766 -19.689472 5.478181 -19.660934 -57.786744 -1.974222 -12.606532 -1.374699 19.378207 2.853225 -53.414239 8.474300 -88.403385 83.742134 -86.114308 -1.482622 -19.362679 1.645322 -0.001763 -0.005296 -0.000783 2.593543 -53.609147 -6.536849 96.478652 79.892648 102.339855 8.730667 -21.017449 -8.754570 0.003259 0.000220 0.001447
-4.077681 126.244985 1.131344 175.998288 -14.896534 -3.090691 0.073657 16.485601 2.285307 -0.022773 1.678630 0.229728 -0.038634 2.795178 0.387289 0.027292 14.554317 2.014815 -2.782004 10.047557 -1.578808 -2.609360 -15.079399 -1.041284 3.687615 -1.728640 -0.608095 15.803316 -18.038019 -11.413340 50.640688 -48.060353 -32.763995 19.973477 5.491381 -25.096417 -3.950871 -1.962785 -0.836084 -0.127349 -19.690487 5.475277 -19.829124 -57.827175 -1.855614 -12.601045 -1.465400 19.467189 2.860848 -53.422060 8.459590 -88.410674 83.746401 -86.114988 -1.485117 -19.347902 1.640258 -0.000240 -0.005332 -0.000106 2.589903 -53.619790 -6.537717 96.526378 79.891744 102.385706 8.713416 -21.015895 -8.744578 0.001213 -0.002444 0.000538
-4.089269 126.133778 1.150503 175.998943 -14.892833 -3.087216 0.075694 16.490068 2.278556 -0.022511 1.679434 0.229230 -0.037390 2.794994 0.388704 0.032607 14.571391 1.998440 -2.796729 10.062496 -1.573951 -2.626038 -15.063677 -1.032567 3.666618 -1.747386 -0.611521 15.818249 -18.038576 -11.381134 50.661255 -48.031077 -32.775521 19.937095 5.424959 -25.226513 -3.960656 -1.980222 -0.811241 -0.095784 -19.686728 5.471514 -19.985607 -57.864071 -1.743024 -12.602612 -1.631216 19.596603 2.869985 -53.428300 8.448969 -88.420049 83.749648 -86.128369 -1.488041 -19.341195 1.647242 -0.002960 -0.006265 -0.001314 2.597542 -53.625104 -6.545589 96.551264 79.894121 102.415350 8.703528 -21.017426 -8.741285 0.002205 -0.002765 0.000979
-4.092270 126.101327 1.156413 175.998945 -14.889592 -3.086062 0.079078 16.496488 2.272465 -0.022039 1.680558 0.228861 -0.037231 2.793240 0.390079 0.036989 14.579329 1.992965 -2.803352 10.056227 -1.565464 -2.638114 -15.048371 -1.029846 3.653994 -1.762057 -0.614196 15.823436 -18.035956 -11.359245 50.676828 -48.009093 -32.781900 19.891361 5.336130 -25.386804 -3.969209 -1.989917 -0.796070 -0.082539 -19.690214 5.468488 -20.112253 -57.895809 -1.633844 -12.612209 -1.872941 19.751131 2.874207 -53.432237 8.444877 -88.422118 83.751979 -86.133133 -1.491104 -19.338882 1.651349 -0.003960 -0.006417 -0.001758 2.605171 -53.629715 -6.550197 96.572875 79.898339 102.440193 8.692721 -21.019156 -8.733847 0.000960 -0.002638 0.000426
